<svg width="59" height="67" viewBox="0 0 59 67" fill="none" xmlns="http://www.w3.org/2000/svg">
<g clip-path="url(#clip0_32_64)">
<path d="M12.5625 0C5.62695 0 0 5.62695 0 12.5625V54.4375C0 61.373 5.62695 67 12.5625 67H50.25H54.4375C56.7537 67 58.625 65.1287 58.625 62.8125C58.625 60.4963 56.7537 58.625 54.4375 58.625V50.25C56.7537 50.25 58.625 48.3787 58.625 46.0625V4.1875C58.625 1.87129 56.7537 0 54.4375 0H50.25H12.5625ZM12.5625 50.25H46.0625V58.625H12.5625C10.2463 58.625 8.375 56.7537 8.375 54.4375C8.375 52.1213 10.2463 50.25 12.5625 50.25ZM16.75 18.8438C16.75 17.6922 17.6922 16.75 18.8438 16.75H43.9688C45.1203 16.75 46.0625 17.6922 46.0625 18.8438C46.0625 19.9953 45.1203 20.9375 43.9688 20.9375H18.8438C17.6922 20.9375 16.75 19.9953 16.75 18.8438ZM18.8438 25.125H43.9688C45.1203 25.125 46.0625 26.0672 46.0625 27.2188C46.0625 28.3703 45.1203 29.3125 43.9688 29.3125H18.8438C17.6922 29.3125 16.75 28.3703 16.75 27.2188C16.75 26.0672 17.6922 25.125 18.8438 25.125Z" fill="#6BA292"/>
</g>
<defs>
<clipPath id="clip0_32_64">
<rect width="58.625" height="67" fill="white"/>
</clipPath>
</defs>
</svg>
