<svg width="48" height="54" viewBox="0 0 48 54" fill="none" xmlns="http://www.w3.org/2000/svg">
<g clip-path="url(#clip0_34_205)">
<path d="M10.125 3.375V6.75H5.0625C2.26758 6.75 0 9.01758 0 11.8125V16.875H47.25V11.8125C47.25 9.01758 44.9824 6.75 42.1875 6.75H37.125V3.375C37.125 1.5082 35.6168 0 33.75 0C31.8832 0 30.375 1.5082 30.375 3.375V6.75H16.875V3.375C16.875 1.5082 15.3668 0 13.5 0C11.6332 0 10.125 1.5082 10.125 3.375ZM47.25 20.25H0V48.9375C0 51.7324 2.26758 54 5.0625 54H42.1875C44.9824 54 47.25 51.7324 47.25 48.9375V20.25Z" fill="#FAFAFB"/>
</g>
<defs>
<clipPath id="clip0_34_205">
<rect width="47.25" height="54" fill="white"/>
</clipPath>
</defs>
</svg>
