<svg width="54" height="54" viewBox="0 0 54 54" fill="none" xmlns="http://www.w3.org/2000/svg">
<path d="M15.7254 6.83438L14.6285 10.125H6.75C3.02695 10.125 0 13.152 0 16.875V43.875C0 47.598 3.02695 50.625 6.75 50.625H47.25C50.973 50.625 54 47.598 54 43.875V16.875C54 13.152 50.973 10.125 47.25 10.125H39.3715L38.2746 6.83438C37.5891 4.76719 35.659 3.375 33.4758 3.375H20.5242C18.341 3.375 16.4109 4.76719 15.7254 6.83438ZM27 20.25C29.6853 20.25 32.2607 21.3167 34.1595 23.2155C36.0583 25.1143 37.125 27.6897 37.125 30.375C37.125 33.0603 36.0583 35.6357 34.1595 37.5345C32.2607 39.4333 29.6853 40.5 27 40.5C24.3147 40.5 21.7393 39.4333 19.8405 37.5345C17.9417 35.6357 16.875 33.0603 16.875 30.375C16.875 27.6897 17.9417 25.1143 19.8405 23.2155C21.7393 21.3167 24.3147 20.25 27 20.25Z" fill="#FAFAFB"/>
</svg>
