<svg width="61" height="54" viewBox="0 0 61 54" fill="none" xmlns="http://www.w3.org/2000/svg">
<g clip-path="url(#clip0_26_60)">
<path d="M30.0564 3.375C21.6239 3.375 14.8716 7.25625 9.95608 11.8758C5.07188 16.4531 1.80532 21.9375 0.26074 25.7027C-0.0836582 26.5359 -0.0836582 27.4641 0.26074 28.2973C1.80532 32.0625 5.07188 37.5469 9.95608 42.1242C14.8716 46.7437 21.6239 50.625 30.0564 50.625C38.489 50.625 45.2413 46.7437 50.1568 42.1242C55.041 37.5363 58.3075 32.0625 59.8626 28.2973C60.207 27.4641 60.207 26.5359 59.8626 25.7027C58.3075 21.9375 55.041 16.4531 50.1568 11.8758C45.2413 7.25625 38.489 3.375 30.0564 3.375ZM15.0281 27C15.0281 22.972 16.6115 19.109 19.4298 16.2608C22.2482 13.4126 26.0707 11.8125 30.0564 11.8125C34.0422 11.8125 37.8647 13.4126 40.683 16.2608C43.5014 19.109 45.0847 22.972 45.0847 27C45.0847 31.028 43.5014 34.891 40.683 37.7392C37.8647 40.5874 34.0422 42.1875 30.0564 42.1875C26.0707 42.1875 22.2482 40.5874 19.4298 37.7392C16.6115 34.891 15.0281 31.028 15.0281 27ZM30.0564 20.25C30.0564 23.973 27.0612 27 23.3772 27C22.6362 27 21.9265 26.8734 21.2586 26.652C20.6846 26.4621 20.0167 26.8207 20.0376 27.4324C20.0689 28.1602 20.1732 28.8879 20.3715 29.6156C21.8013 35.0156 27.3012 38.2219 32.6446 36.777C37.988 35.332 41.1607 29.7738 39.7309 24.3738C38.5725 19.9969 34.7423 17.0543 30.4843 16.875C29.879 16.8539 29.5242 17.5184 29.712 18.109C29.9312 18.784 30.0564 19.5012 30.0564 20.25Z" fill="#FAFAFB"/>
</g>
<defs>
<clipPath id="clip0_26_60">
<rect width="60.1132" height="54" fill="white"/>
</clipPath>
</defs>
</svg>
