<svg width="73" height="73" viewBox="0 0 73 73" fill="none" xmlns="http://www.w3.org/2000/svg">
<path d="M0 27.375C0 22.342 4.09199 18.25 9.125 18.25C9.19629 18.25 9.28184 18.25 9.35312 18.25C10.4082 13.0459 15.0135 9.125 20.5312 9.125C22.6699 9.125 24.666 9.70957 26.3627 10.7219C28.259 7.07187 32.0943 4.5625 36.5 4.5625C40.9057 4.5625 44.741 7.07187 46.6373 10.7219C48.334 9.70957 50.3301 9.125 52.4688 9.125C57.9865 9.125 62.5918 13.0459 63.6469 18.25C63.7182 18.25 63.8037 18.25 63.875 18.25C68.908 18.25 73 22.342 73 27.375C73 29.0432 72.558 30.5973 71.7738 31.9375H1.22617C0.441992 30.5973 0 29.0432 0 27.375ZM0 40.4066C0 38.2537 1.75371 36.5 3.90664 36.5H69.0791C71.232 36.5 72.9857 38.2537 72.9857 40.4066C72.9857 50.4584 66.6553 59.0416 57.7727 62.3779L57.5303 64.4453C57.2451 66.7266 55.3061 68.4375 52.9963 68.4375H19.9895C17.6939 68.4375 15.7406 66.7266 15.4555 64.4453L15.1988 62.3922C6.33047 59.0416 0 50.4584 0 40.4066Z" fill="#FF8260"/>
</svg>
