<svg width="60" height="48" viewBox="0 0 60 48" fill="none" xmlns="http://www.w3.org/2000/svg">
<path d="M54.3561 25.0968C59.6529 19.7999 59.6529 11.2218 54.3561 5.9249C49.6686 1.2374 42.2811 0.628024 36.8904 4.48115L36.7404 4.58427C35.3904 5.5499 35.0811 7.4249 36.0467 8.76552C37.0123 10.1061 38.8873 10.4249 40.2279 9.45927L40.3779 9.35615C43.3873 7.20927 47.5029 7.54677 50.1092 10.1624C53.0623 13.1155 53.0623 17.8968 50.1092 20.8499L39.5904 31.3874C36.6373 34.3405 31.8561 34.3405 28.9029 31.3874C26.2873 28.7718 25.9498 24.6562 28.0967 21.6562L28.1998 21.5062C29.1654 20.1562 28.8467 18.2812 27.5061 17.3249C26.1654 16.3687 24.2811 16.678 23.3248 18.0187L23.2217 18.1687C19.3592 23.5499 19.9686 30.9374 24.6561 35.6249C29.9529 40.9218 38.5311 40.9218 43.8279 35.6249L54.3561 25.0968ZM5.64355 22.903C0.34668 28.1999 0.34668 36.778 5.64355 42.0749C10.3311 46.7624 17.7186 47.3718 23.1092 43.5187L23.2592 43.4155C24.6092 42.4499 24.9186 40.5749 23.9529 39.2343C22.9873 37.8937 21.1123 37.5749 19.7717 38.5405L19.6217 38.6437C16.6123 40.7905 12.4967 40.453 9.89043 37.8374C6.9373 34.8749 6.9373 30.0937 9.89043 27.1405L20.4092 16.6124C23.3623 13.6593 28.1436 13.6593 31.0967 16.6124C33.7123 19.228 34.0498 23.3437 31.9029 26.353L31.7998 26.503C30.8342 27.853 31.1529 29.728 32.4936 30.6843C33.8342 31.6405 35.7186 31.3312 36.6748 29.9905L36.7779 29.8405C40.6404 24.4499 40.0311 17.0624 35.3436 12.3749C30.0467 7.07802 21.4686 7.07802 16.1717 12.3749L5.64355 22.903Z" fill="#FAFAFB"/>
</svg>
