<svg width="363" height="51" viewBox="0 0 363 51" fill="none" xmlns="http://www.w3.org/2000/svg">
<g clip-path="url(#clip0_52_8)">
<mask id="mask0_52_8" style="mask-type:luminance" maskUnits="userSpaceOnUse" x="313" y="-1" width="50" height="52">
<path d="M363 -0.131577H313.66V51H363V-0.131577Z" fill="white"/>
</mask>
<g mask="url(#mask0_52_8)">
<path d="M326.039 49.2369C322.341 48.9687 320.408 47.61 319.414 46.1021C319.604 42.4311 320.156 37.8588 321.706 33.7094C322.594 31.3332 323.854 29.1822 325.401 27.601C327.093 25.7161 328.656 24.2658 330.23 23.0698C333.338 20.7238 336.064 19.7018 336.928 19.3423C337.8 18.999 339.365 18.3541 341.259 17.6358C343.146 16.9769 345.433 16.0235 347.384 14.8579C351.386 12.628 354.702 10.1118 354.697 10.111C354.704 10.1118 351.157 12.1148 347.037 13.7773C344.959 14.6804 342.834 15.2742 340.852 15.7418C338.901 16.2533 337.254 16.7739 336.348 17.1315C334.651 17.8535 324.485 21.1686 319.294 32.2811C318.119 35.1196 317.382 38.0556 316.906 40.807C315.733 40.1317 314.272 38.8252 313.874 36.4067C313.179 32.1933 313.565 19.5499 324.808 12.5265C336.048 5.50383 348.6 6.90748 354.607 4.84794C360.612 2.78822 363 -1.89473 363 -1.89473C363 -1.89473 357.996 45.7717 326.039 49.2369Z" fill="#6BA292"/>
</g>
<path d="M15.3258 49.4273L4.09742 11.6604C3.80139 10.6872 3.4842 9.98895 3.14587 9.56579C2.80754 9.10032 2.21546 8.67716 1.36964 8.29632L0.608398 7.97895V7.34421H17.4192V7.97895L16.087 8.48674C15.1143 8.86758 14.4588 9.33305 14.1205 9.88316C13.7821 10.4333 13.761 11.1949 14.057 12.1682L20.9717 38.5733L28.4572 16.4209L26.9982 11.9143C26.7022 11.0257 26.4273 10.3486 26.1735 9.88316C25.9198 9.41769 25.4969 9.03684 24.9048 8.74063L23.5092 7.97895V7.34421H39.4318V7.97895L37.4653 8.74063C36.6195 9.03684 36.1331 9.48116 36.0062 10.0736C35.9217 10.6237 36.0274 11.3431 36.3234 12.2317L44.3799 39.208L51.9923 12.7395C52.2884 11.7239 52.3941 10.8353 52.3095 10.0736C52.2249 9.3119 51.6963 8.76179 50.7236 8.42326L49.3914 7.97895V7.34421H58.2091V7.97895L56.5598 8.61369C55.714 8.9099 55.1219 9.37537 54.7836 10.0101C54.4452 10.6448 54.1492 11.4277 53.8954 12.3586L43.3649 49.4273H38.9878L29.4722 19.5946L19.703 49.4273H15.3258ZM65.6723 14.4533C64.2344 14.4533 63.008 14.0089 61.993 13.1203C61.0203 12.1894 60.5339 11.0257 60.5339 9.62926C60.5339 8.19053 61.0203 7.02684 61.993 6.13821C63.008 5.24958 64.2344 4.80526 65.6723 4.80526C67.1102 4.80526 68.3155 5.24958 69.2882 6.13821C70.2609 7.02684 70.7473 8.19053 70.7473 9.62926C70.7473 11.0257 70.2609 12.1894 69.2882 13.1203C68.3155 14.0089 67.1102 14.4533 65.6723 14.4533ZM58.1868 49.2368V48.6021L59.0749 48.3482C59.9207 48.0943 60.4916 47.7135 60.7877 47.2057C61.126 46.6979 61.2952 46.0208 61.2952 45.1745V25.3073C61.2952 24.4186 61.126 23.7627 60.7877 23.3396C60.4916 22.8741 59.9207 22.5567 59.0749 22.3875L58.1868 22.1971V21.5623L69.7957 17.8174L70.4301 18.4521L70.2398 27.4654V45.238C70.2398 46.0843 70.3878 46.7614 70.6838 47.2692C71.0222 47.7769 71.5931 48.1578 72.3966 48.4117L73.031 48.6021V49.2368H58.1868ZM87.8927 50.1889C85.186 50.1889 83.0715 49.5119 81.549 48.1578C80.0688 46.8037 79.3287 44.6456 79.3287 41.6835V19.9755H74.9516V19.3407L76.474 19.0868C77.7851 18.7906 78.9058 18.3675 79.8362 17.8174C80.8089 17.2673 81.7604 16.5267 82.6909 15.5958L87.8927 9.81969H88.527L88.3367 18.706H95.4417V19.9755H88.2733V42.826C88.2733 44.3071 88.5905 45.4284 89.2249 46.1901C89.9015 46.9518 90.7473 47.3326 91.7623 47.3326C92.6505 47.3326 93.4328 47.1211 94.1095 46.6979C94.7862 46.2324 95.4628 45.6188 96.1395 44.8572L96.7738 45.4919C95.928 46.9306 94.765 48.0732 93.2848 48.9195C91.8046 49.7658 90.0072 50.1889 87.8927 50.1889ZM98.9515 49.2368V48.6021L99.7127 48.3482C101.235 47.8404 101.996 46.7825 101.996 45.1745V11.2796C101.996 10.3909 101.848 9.73505 101.552 9.3119C101.256 8.88874 100.685 8.57137 99.8396 8.35979L98.8881 8.1059V7.47116L110.053 4.74179L111.068 5.31305L110.814 14.2628V22.1971C112.294 20.9699 113.88 19.9332 115.572 19.0868C117.306 18.1982 119.209 17.7539 121.281 17.7539C124.03 17.7539 126.208 18.5367 127.815 20.1024C129.465 21.6681 130.289 24.0801 130.289 27.3384V45.238C130.289 46.0843 130.458 46.7614 130.797 47.2692C131.135 47.7769 131.727 48.1578 132.573 48.4117L133.081 48.6021V49.2368H118.236V48.6021L118.998 48.4117C120.52 47.9039 121.281 46.8248 121.281 45.1745V25.2438C121.281 23.5512 120.985 22.3875 120.393 21.7527C119.843 21.118 118.85 20.8006 117.412 20.8006C116.481 20.8006 115.466 20.9911 114.367 21.3719C113.267 21.7104 112.146 22.324 111.005 23.2126V45.3015C111.005 46.9518 111.766 48.0097 113.288 48.4752L113.796 48.6021V49.2368H98.9515ZM149.501 49.2368V48.6021L150.96 48.0308C151.679 47.7346 152.166 47.3538 152.419 46.8883C152.715 46.3805 152.863 45.7035 152.863 44.8572V11.7239C152.863 10.8776 152.736 10.2217 152.483 9.75621C152.271 9.24842 151.764 8.84642 150.96 8.55021L149.501 7.97895V7.34421H179.888L180.268 17.1192H179.634L176.906 11.1526C176.526 10.3909 176.124 9.77737 175.701 9.3119C175.278 8.84642 174.643 8.61369 173.798 8.61369H162.379V26.9576H169.167C170.012 26.9576 170.647 26.746 171.07 26.3228C171.535 25.8574 171.937 25.2438 172.275 24.4821L173.544 21.9432H174.178V33.3684H173.544L172.275 30.7025C171.894 29.9408 171.493 29.3484 171.07 28.9253C170.647 28.4598 170.012 28.2271 169.167 28.2271H162.379V47.9674H175.193C176.039 47.9674 176.695 47.7558 177.16 47.3326C177.625 46.8672 178.006 46.2324 178.302 45.4284L180.903 39.4619H181.537L181.157 49.2368H149.501ZM184.753 49.2368V48.6021L185.514 48.3482C187.037 47.8404 187.798 46.7825 187.798 45.1745V11.2161C187.798 10.3698 187.629 9.73505 187.291 9.3119C186.952 8.84642 186.36 8.5079 185.514 8.29632L184.69 8.1059V7.47116L196.299 4.74179L197.06 5.31305L196.806 14.1994V35.9074C196.806 37.4731 196.806 39.0387 196.806 40.6044C196.848 42.1278 196.87 43.6512 196.87 45.1745C196.87 46.0208 197.039 46.7191 197.377 47.2692C197.715 47.7769 198.286 48.1578 199.09 48.4117L199.914 48.6021V49.2368H184.753ZM218.635 17.7539C221.384 17.7539 223.732 18.3252 225.677 19.4677C227.622 20.5679 229.103 22.0913 230.117 24.0378C231.175 25.942 231.703 28.1213 231.703 30.5756C231.703 31.0411 231.682 31.5277 231.64 32.0355C231.598 32.5009 231.513 32.9241 231.386 33.3049H212.482C212.524 37.8751 213.328 41.1757 214.893 43.2068C216.5 45.1957 218.868 46.1901 221.998 46.1901C224.112 46.1901 225.825 45.8516 227.136 45.1745C228.447 44.4975 229.673 43.5031 230.815 42.1913L231.45 42.7625C230.139 45.0899 228.384 46.9095 226.184 48.2213C224.028 49.5331 221.427 50.1889 218.382 50.1889C215.379 50.1889 212.715 49.5542 210.389 48.2847C208.063 46.9729 206.244 45.1111 204.933 42.6991C203.622 40.2871 202.967 37.4096 202.967 34.0666C202.967 30.5967 203.728 27.6558 205.25 25.2438C206.773 22.7895 208.718 20.9276 211.086 19.6581C213.497 18.3886 216.013 17.7539 218.635 17.7539ZM218.445 19.0234C217.219 19.0234 216.161 19.4042 215.273 20.1659C214.427 20.8853 213.751 22.1971 213.243 24.1013C212.778 25.9632 212.524 28.6079 212.482 32.0355H223.33C223.753 27.4231 223.583 24.1013 222.822 22.0701C222.061 20.0389 220.602 19.0234 218.445 19.0234ZM234.865 49.2368V48.6021L235.753 48.3482C237.233 47.925 237.973 46.8883 237.973 45.238V25.3707C237.973 24.4398 237.825 23.7627 237.529 23.3396C237.233 22.8741 236.662 22.5567 235.816 22.3875L234.865 22.1336V21.4988L245.712 17.8174L246.347 18.4521L246.854 22.2605C248.334 20.9487 250.005 19.8697 251.866 19.0234C253.727 18.1771 255.566 17.7539 257.385 17.7539C260.176 17.7539 262.312 18.5156 263.792 20.0389C265.314 21.5623 266.076 23.8897 266.076 27.0211V45.3015C266.076 46.9518 266.879 47.9885 268.486 48.4117L269.057 48.6021V49.2368H254.086V48.6021L254.911 48.3482C256.391 47.8827 257.131 46.846 257.131 45.238V24.9899C257.131 22.2817 255.778 20.9276 253.071 20.9276C251.21 20.9276 249.18 21.8585 246.981 23.7204V45.3015C246.981 46.9518 247.721 47.9885 249.201 48.4117L249.772 48.6021V49.2368H234.865ZM280.43 50.1889C277.977 50.1889 275.905 49.4907 274.213 48.0943C272.564 46.6979 271.739 44.6879 271.739 42.0643C271.739 40.0755 272.754 38.2559 274.784 36.6056C276.814 34.9129 280.007 33.6435 284.363 32.7972C285.04 32.6702 285.801 32.5433 286.647 32.4163C287.493 32.2471 288.381 32.0778 289.311 31.9085V26.8941C289.311 24.0166 288.952 22.0066 288.233 20.8641C287.556 19.6793 286.478 19.0868 284.997 19.0868C283.982 19.0868 283.179 19.4254 282.587 20.1024C281.995 20.7372 281.614 21.8585 281.445 23.4665L281.318 24.1647C281.234 25.9843 280.789 27.3173 279.986 28.1636C279.182 29.0099 278.189 29.4331 277.004 29.4331C275.905 29.4331 274.996 29.0945 274.277 28.4175C273.558 27.7404 273.198 26.8306 273.198 25.6881C273.198 23.9532 273.79 22.4933 274.974 21.3084C276.201 20.1236 277.808 19.2349 279.796 18.6425C281.783 18.0501 283.94 17.7539 286.266 17.7539C290.03 17.7539 292.927 18.6848 294.957 20.5467C297.029 22.3663 298.065 25.3496 298.065 29.4965V43.5242C298.065 45.4284 298.954 46.3805 300.73 46.3805H302.125L302.696 46.8883C301.893 47.9039 301.005 48.6867 300.032 49.2368C299.102 49.7869 297.769 50.062 296.035 50.062C294.175 50.062 292.694 49.6388 291.595 48.7925C290.538 47.9039 289.84 46.7402 289.501 45.3015C288.233 46.6556 286.922 47.8193 285.568 48.7925C284.257 49.7235 282.545 50.1889 280.43 50.1889ZM284.3 46.3171C285.145 46.3171 285.928 46.1266 286.647 45.7458C287.408 45.3226 288.296 44.6879 289.311 43.8416V33.178C288.888 33.2626 288.465 33.3473 288.042 33.4319C287.62 33.5165 287.133 33.6012 286.583 33.6858C284.638 34.1936 283.073 35.0611 281.889 36.2882C280.747 37.4731 280.176 39.0811 280.176 41.1122C280.176 42.8472 280.578 44.1589 281.382 45.0476C282.185 45.8939 283.158 46.3171 284.3 46.3171Z" fill="#6BA292"/>
</g>
<defs>
<clipPath id="clip0_52_8">
<rect width="363" height="51" fill="white"/>
</clipPath>
</defs>
</svg>
