<svg width="67" height="54" viewBox="0 0 67 54" fill="none" xmlns="http://www.w3.org/2000/svg">
<g clip-path="url(#clip0_32_58)">
<path d="M20.1 10.0319C21.4328 10.0319 22.7109 9.50346 23.6533 8.56278C24.5956 7.62211 25.125 6.34628 25.125 5.01596C25.125 3.68565 24.5956 2.40982 23.6533 1.46914C22.7109 0.528466 21.4328 0 20.1 0C18.7673 0 17.4892 0.528466 16.5468 1.46914C15.6045 2.40982 15.075 3.68565 15.075 5.01596C15.075 6.34628 15.6045 7.62211 16.5468 8.56278C17.4892 9.50346 18.7673 10.0319 20.1 10.0319ZM19.2625 50.1596V36.7837H20.9375V50.1596C20.9375 52.0093 22.4346 53.5036 24.2875 53.5036C26.1405 53.5036 27.6375 52.0093 27.6375 50.1596V20.0638H33.5H40.2H41.875C43.728 20.0638 45.225 18.5695 45.225 16.7199C45.225 14.8702 43.728 13.3759 41.875 13.3759H40.2V6.68795H60.3V26.7518H40.2V23.4078H33.5V28.4238C33.5 31.193 35.7508 33.4397 38.525 33.4397H61.975C64.7493 33.4397 67 31.193 67 28.4238V5.01596C67 2.24673 64.7493 0 61.975 0H38.525C35.7508 0 33.5 2.24673 33.5 5.01596V13.3759H25.4496H18.5507C15.0227 13.3759 11.7565 15.2255 9.93489 18.2456L3.83161 28.382C2.87895 29.9599 3.39192 32.0186 4.9727 32.9695C6.55348 33.9204 8.61583 33.4084 9.56848 31.8305L12.5625 26.8458V50.1596C12.5625 52.0093 14.0596 53.5036 15.9125 53.5036C17.7655 53.5036 19.2625 52.0093 19.2625 50.1596Z" fill="#6BA292"/>
</g>
<defs>
<clipPath id="clip0_32_58">
<rect width="67" height="53.5036" fill="white"/>
</clipPath>
</defs>
</svg>
