<svg width="61" height="70" viewBox="0 0 61 70" fill="none" xmlns="http://www.w3.org/2000/svg">
<path d="M0 29.5312C0 20.4668 7.31183 13.125 16.3393 13.125H17.4286C19.8386 13.125 21.7857 15.0801 21.7857 17.5C21.7857 19.9199 19.8386 21.875 17.4286 21.875H16.3393C12.1319 21.875 8.71429 25.3066 8.71429 29.5312V30.625H17.4286C22.235 30.625 26.1429 34.5488 26.1429 39.375V48.125C26.1429 52.9512 22.235 56.875 17.4286 56.875H8.71429C3.90781 56.875 0 52.9512 0 48.125V43.75V39.375V29.5312ZM34.8571 29.5312C34.8571 20.4668 42.169 13.125 51.1964 13.125H52.2857C54.6958 13.125 56.6429 15.0801 56.6429 17.5C56.6429 19.9199 54.6958 21.875 52.2857 21.875H51.1964C46.9891 21.875 43.5714 25.3066 43.5714 29.5312V30.625H52.2857C57.0922 30.625 61 34.5488 61 39.375V48.125C61 52.9512 57.0922 56.875 52.2857 56.875H43.5714C38.765 56.875 34.8571 52.9512 34.8571 48.125V43.75V39.375V29.5312Z" fill="#6BA292"/>
</svg>
