<svg width="60" height="60" viewBox="0 0 60 60" fill="none" xmlns="http://www.w3.org/2000/svg">
<g clip-path="url(#clip0_26_62)">
<path d="M20.8477 57.9023C18.6562 60.0938 15.0938 60.0938 12.8906 57.9023L2.09766 47.0977C-0.09375 44.9062 -0.09375 41.3438 2.09766 39.1406L8.03906 33.1992L13.6641 38.8242C14.3906 39.5508 15.5859 39.5508 16.3125 38.8242C17.0391 38.0977 17.0391 36.9023 16.3125 36.1758L10.6875 30.5508L15.5391 25.6992L21.1641 31.3242C21.8906 32.0508 23.0859 32.0508 23.8125 31.3242C24.5391 30.5977 24.5391 29.4023 23.8125 28.6758L18.1875 23.0508L23.0391 18.1992L28.6641 23.8242C29.3906 24.5508 30.5859 24.5508 31.3125 23.8242C32.0391 23.0977 32.0391 21.9023 31.3125 21.1758L25.6875 15.5508L30.5391 10.6992L36.1641 16.3242C36.8906 17.0508 38.0859 17.0508 38.8125 16.3242C39.5391 15.5977 39.5391 14.4023 38.8125 13.6758L33.1875 8.05078L39.1289 2.10938C41.3203 -0.0820312 44.8828 -0.0820312 47.0859 2.10938L57.8789 12.9023C60.0703 15.0938 60.0703 18.6562 57.8789 20.8594L20.8477 57.9023Z" fill="#FAFAFB"/>
</g>
<defs>
<clipPath id="clip0_26_62">
<rect width="60" height="60" fill="white"/>
</clipPath>
</defs>
</svg>
