<svg width="67" height="67" viewBox="0 0 67 67" fill="none" xmlns="http://www.w3.org/2000/svg">
<g clip-path="url(#clip0_7_46)">
<path d="M67 4.1875C67 19.0531 55.9293 31.3408 41.5871 33.2383C40.658 26.2504 37.5828 19.943 33.042 15.0096C38.0539 6.05879 47.6328 0 58.625 0H62.8125C65.1287 0 67 1.87129 67 4.1875ZM0 12.5625C0 10.2463 1.87129 8.375 4.1875 8.375H8.375C24.5623 8.375 37.6875 21.5002 37.6875 37.6875V41.875V62.8125C37.6875 65.1287 35.8162 67 33.5 67C31.1838 67 29.3125 65.1287 29.3125 62.8125V41.875C13.1252 41.875 0 28.7498 0 12.5625Z" fill="#FF8260"/>
</g>
<defs>
<clipPath id="clip0_7_46">
<rect width="67" height="67" fill="white"/>
</clipPath>
</defs>
</svg>
