<svg width="73" height="73" viewBox="0 0 73 73" fill="none" xmlns="http://www.w3.org/2000/svg">
<g clip-path="url(#clip0_7_48)">
<path d="M51.542 0.171124C52.2549 0.470538 52.7682 1.11214 52.9108 1.8678L55.7481 17.252L71.1323 20.075C71.8879 20.2176 72.5295 20.7309 72.8289 21.4438C73.1283 22.1567 73.0428 22.9694 72.6008 23.611L63.7182 36.5L72.6008 49.3748C73.0428 50.0164 73.1283 50.8291 72.8289 51.542C72.5295 52.2549 71.8879 52.7682 71.1323 52.9108L55.7481 55.7481L52.9108 71.1323C52.7682 71.8879 52.2549 72.5295 51.542 72.8289C50.8291 73.1283 50.0164 73.0428 49.3748 72.6008L36.5 63.7182L23.6252 72.6008C22.9836 73.0428 22.1709 73.1283 21.458 72.8289C20.7451 72.5295 20.2319 71.8879 20.0893 71.1323L17.252 55.7481L1.8678 52.9108C1.11214 52.7682 0.470538 52.2549 0.171124 51.542C-0.12829 50.8291 -0.0427436 50.0164 0.399249 49.3748L9.28187 36.5L0.399249 23.6252C-0.0427436 22.9836 -0.12829 22.1709 0.171124 21.458C0.470538 20.7451 1.11214 20.2319 1.8678 20.0893L17.252 17.252L20.0893 1.8678C20.2319 1.11214 20.7451 0.470538 21.458 0.171124C22.1709 -0.12829 22.9836 -0.0427436 23.6252 0.399249L36.5 9.28187L49.3748 0.399249C50.0164 -0.0427436 50.8291 -0.12829 51.542 0.171124ZM22.8125 36.5C22.8125 32.8699 24.2546 29.3884 26.8215 26.8215C29.3884 24.2546 32.8699 22.8125 36.5 22.8125C40.1302 22.8125 43.6117 24.2546 46.1786 26.8215C48.7455 29.3884 50.1875 32.8699 50.1875 36.5C50.1875 40.1302 48.7455 43.6117 46.1786 46.1786C43.6117 48.7455 40.1302 50.1875 36.5 50.1875C32.8699 50.1875 29.3884 48.7455 26.8215 46.1786C24.2546 43.6117 22.8125 40.1302 22.8125 36.5ZM54.75 36.5C54.75 31.6598 52.8273 27.0179 49.4047 23.5953C45.9822 20.1728 41.3402 18.25 36.5 18.25C31.6598 18.25 27.0179 20.1728 23.5953 23.5953C20.1728 27.0179 18.25 31.6598 18.25 36.5C18.25 41.3402 20.1728 45.9822 23.5953 49.4047C27.0179 52.8273 31.6598 54.75 36.5 54.75C41.3402 54.75 45.9822 52.8273 49.4047 49.4047C52.8273 45.9822 54.75 41.3402 54.75 36.5Z" fill="#FF8260"/>
</g>
<defs>
<clipPath id="clip0_7_48">
<rect width="73" height="73" fill="white"/>
</clipPath>
</defs>
</svg>
